<svg width="107" height="32" viewBox="0 0 107 32" fill="none" xmlns="http://www.w3.org/2000/svg">
<path d="M12.351 2.68H17.511L29.831 31H22.791L20.351 25H9.351L6.991 31H0.111001L12.351 2.68ZM14.751 10.92L11.311 19.72H18.231L14.751 10.92ZM31.9994 0.759998H37.9994V31H31.9994V0.759998ZM42.3901 11.56H48.3901V31H42.3901V11.56ZM41.9101 5.44C41.9101 4.48 42.2434 3.66667 42.9101 3C43.6034 2.30667 44.4301 1.96 45.3901 1.96C46.3501 1.96 47.1634 2.30667 47.8301 3C48.5234 3.66667 48.8701 4.48 48.8701 5.44C48.8701 6.4 48.5234 7.22667 47.8301 7.92C47.1634 8.58667 46.3501 8.92 45.3901 8.92C44.4301 8.92 43.6034 8.58667 42.9101 7.92C42.2434 7.22667 41.9101 6.4 41.9101 5.44ZM50.6607 11.56H57.1407L62.0607 24.76H62.1407L66.7007 11.56H72.7407L65.0607 31H58.7007L50.6607 11.56ZM75.0073 11.56H81.0073V31H75.0073V11.56ZM74.5273 5.44C74.5273 4.48 74.8606 3.66667 75.5273 3C76.2206 2.30667 77.0473 1.96 78.0073 1.96C78.9673 1.96 79.7806 2.30667 80.4473 3C81.1406 3.66667 81.4873 4.48 81.4873 5.44C81.4873 6.4 81.1406 7.22667 80.4473 7.92C79.7806 8.58667 78.9673 8.92 78.0073 8.92C77.0473 8.92 76.2206 8.58667 75.5273 7.92C74.8606 7.22667 74.5273 6.4 74.5273 5.44ZM84.5979 21.28C84.5979 19.7333 84.8779 18.3333 85.4379 17.08C85.9979 15.8267 86.7579 14.76 87.7179 13.88C88.7045 12.9733 89.8512 12.28 91.1579 11.8C92.4912 11.32 93.9045 11.08 95.3979 11.08C96.8912 11.08 98.2912 11.32 99.5979 11.8C100.931 12.28 102.078 12.9733 103.038 13.88C104.025 14.76 104.798 15.8267 105.358 17.08C105.918 18.3333 106.198 19.7333 106.198 21.28C106.198 22.8267 105.918 24.2267 105.358 25.48C104.798 26.7333 104.025 27.8133 103.038 28.72C102.078 29.6 100.931 30.28 99.5979 30.76C98.2912 31.24 96.8912 31.48 95.3979 31.48C93.9045 31.48 92.4912 31.24 91.1579 30.76C89.8512 30.28 88.7045 29.6 87.7179 28.72C86.7579 27.8133 85.9979 26.7333 85.4379 25.48C84.8779 24.2267 84.5979 22.8267 84.5979 21.28ZM90.5979 21.28C90.5979 22.7467 91.0112 23.9333 91.8379 24.84C92.6912 25.7467 93.8779 26.2 95.3979 26.2C96.9179 26.2 98.0912 25.7467 98.9179 24.84C99.7712 23.9333 100.198 22.7467 100.198 21.28C100.198 19.8133 99.7712 18.6267 98.9179 17.72C98.0912 16.8133 96.9179 16.36 95.3979 16.36C93.8779 16.36 92.6912 16.8133 91.8379 17.72C91.0112 18.6267 90.5979 19.8133 90.5979 21.28Z" fill="white"/>
</svg>
