<svg width="81" height="24" viewBox="0 0 81 24" fill="none" xmlns="http://www.w3.org/2000/svg">
<path d="M9.40585 1.76007H13.3202L22.6661 23.0001H17.3256L15.4746 18.5001H7.13007L5.33979 23.0001H0.120667L9.40585 1.76007ZM11.2265 7.94007L8.61692 14.5401H13.8664L11.2265 7.94007Z" fill="#01996D"/>
<path d="M24.311 0.320068H28.8626V23.0001H24.311V0.320068Z" fill="#01996D"/>
<path d="M32.1933 8.42007H36.7449V23.0001H32.1933V8.42007ZM31.8292 3.83007C31.8292 3.11007 32.082 2.50007 32.5878 2.00007C33.1137 1.48007 33.7408 1.22007 34.4691 1.22007C35.1973 1.22007 35.8143 1.48007 36.32 2.00007C36.846 2.50007 37.109 3.11007 37.109 3.83007C37.109 4.55007 36.846 5.17007 36.32 5.69007C35.8143 6.19007 35.1973 6.44007 34.4691 6.44007C33.7408 6.44007 33.1137 6.19007 32.5878 5.69007C32.082 5.17007 31.8292 4.55007 31.8292 3.83007Z" fill="#01996D"/>
<path d="M38.4673 8.42007H43.383L47.1153 18.3201H47.176L50.6352 8.42007H55.2171L49.3911 23.0001H44.5664L38.4673 8.42007Z" fill="#01996D"/>
<path d="M56.9365 8.42007H61.4881V23.0001H56.9365V8.42007ZM56.5724 3.83007C56.5724 3.11007 56.8252 2.50007 57.331 2.00007C57.8569 1.48007 58.484 1.22007 59.2123 1.22007C59.9405 1.22007 60.5575 1.48007 61.0632 2.00007C61.5892 2.50007 61.8522 3.11007 61.8522 3.83007C61.8522 4.55007 61.5892 5.17007 61.0632 5.69007C60.5575 6.19007 59.9405 6.44007 59.2123 6.44007C58.484 6.44007 57.8569 6.19007 57.331 5.69007C56.8252 5.17007 56.5724 4.55007 56.5724 3.83007Z" fill="#01996D"/>
<path d="M64.2119 15.7101C64.2119 14.5501 64.4243 13.5001 64.8491 12.5601C65.2739 11.6201 65.8504 10.8201 66.5787 10.1601C67.3272 9.48007 68.197 8.96007 69.1883 8.60007C70.1997 8.24007 71.2719 8.06007 72.4047 8.06007C73.5375 8.06007 74.5996 8.24007 75.5908 8.60007C76.6022 8.96007 77.4721 9.48007 78.2003 10.1601C78.9488 10.8201 79.5355 11.6201 79.9603 12.5601C80.3851 13.5001 80.5975 14.5501 80.5975 15.7101C80.5975 16.8701 80.3851 17.9201 79.9603 18.8601C79.5355 19.8001 78.9488 20.6101 78.2003 21.2901C77.4721 21.9501 76.6022 22.4601 75.5908 22.8201C74.5996 23.1801 73.5375 23.3601 72.4047 23.3601C71.2719 23.3601 70.1997 23.1801 69.1883 22.8201C68.197 22.4601 67.3272 21.9501 66.5787 21.2901C65.8504 20.6101 65.2739 19.8001 64.8491 18.8601C64.4243 17.9201 64.2119 16.8701 64.2119 15.7101ZM68.7634 15.7101C68.7634 16.8101 69.077 17.7001 69.7041 18.3801C70.3514 19.0601 71.2516 19.4001 72.4047 19.4001C73.5578 19.4001 74.4478 19.0601 75.0749 18.3801C75.7223 17.7001 76.0459 16.8101 76.0459 15.7101C76.0459 14.6101 75.7223 13.7201 75.0749 13.0401C74.4478 12.3601 73.5578 12.0201 72.4047 12.0201C71.2516 12.0201 70.3514 12.3601 69.7041 13.0401C69.077 13.7201 68.7634 14.6101 68.7634 15.7101Z" fill="#01996D"/>
</svg>
